<svg width="35" height="35" viewBox="0 0 35 35" fill="none" xmlns="http://www.w3.org/2000/svg">
<path fill-rule="evenodd" clip-rule="evenodd" d="M2.1875 17.5C2.1875 17.2099 2.30273 16.9317 2.50785 16.7266C2.71297 16.5215 2.99117 16.4062 3.28125 16.4062H29.0784L22.1944 9.52437C21.989 9.31899 21.8736 9.04044 21.8736 8.74999C21.8736 8.45955 21.989 8.18099 22.1944 7.97562C22.3998 7.77024 22.6783 7.65486 22.9688 7.65486C23.2592 7.65486 23.5377 7.77024 23.7431 7.97562L32.4931 16.7256C32.595 16.8272 32.6758 16.9479 32.7309 17.0808C32.7861 17.2137 32.8145 17.3561 32.8145 17.5C32.8145 17.6439 32.7861 17.7863 32.7309 17.9192C32.6758 18.0521 32.595 18.1728 32.4931 18.2744L23.7431 27.0244C23.5377 27.2297 23.2592 27.3451 22.9688 27.3451C22.6783 27.3451 22.3998 27.2297 22.1944 27.0244C21.989 26.819 21.8736 26.5404 21.8736 26.25C21.8736 25.9595 21.989 25.681 22.1944 25.4756L29.0784 18.5937H3.28125C2.99117 18.5937 2.71297 18.4785 2.50785 18.2734C2.30273 18.0683 2.1875 17.7901 2.1875 17.5Z" fill="#FF6584"/>
</svg>
