<svg width="249" height="204" viewBox="0 0 249 204" fill="none" xmlns="http://www.w3.org/2000/svg">
<g clip-path="url(#clip0_20_56)">
<path d="M202.791 98.4576C202.791 101.324 202.667 104.162 202.419 106.97C202.223 109.162 201.956 111.335 201.618 113.488C201.259 115.767 200.819 118.019 200.298 120.244V120.247C199.958 121.711 199.584 123.163 199.176 124.603C197.994 128.789 196.523 132.894 194.774 136.89C194.394 137.759 194.001 138.622 193.597 139.479C192.065 142.726 190.349 145.888 188.458 148.951C183.155 157.552 176.535 165.32 168.826 171.988C167.992 172.709 167.146 173.417 166.289 174.114C148.086 188.879 125.113 196.951 101.395 196.915C45.3956 196.915 0 152.835 0 98.4576C0 44.0801 45.3956 -0.000305299 101.395 -0.000305299C124.296 -0.0353684 146.529 7.4917 164.443 21.3451C165.282 21.9912 166.112 22.6518 166.93 23.327C170.925 26.6166 174.653 30.1997 178.081 34.0446H178.084C194.052 51.9184 202.827 74.7954 202.791 98.4576Z" fill="#F2F2F2"/>
<path d="M29.9318 115.465C20.2727 109.883 12.9824 99.4503 13.9288 88.5744C22.7596 96.7815 34.2953 101.691 46.495 102.434C51.201 102.704 56.4641 102.529 59.9282 105.634C62.0837 107.565 63.0871 110.474 63.2517 113.318C63.4162 116.161 62.8295 118.99 62.2459 121.782L62.4467 122.465C51.2064 122.506 39.5909 121.048 29.9318 115.465Z" fill="#E6E6E6"/>
<path d="M14.1644 88.5628C18.0346 96.7784 24.4722 103.601 32.563 108.062C34.3023 109.007 36.1515 109.819 38.1165 110.196C40.0348 110.549 42.0154 110.396 43.8526 109.754C45.5779 109.189 47.2754 108.417 49.1121 108.27C51.0481 108.114 52.8405 108.839 54.2487 110.109C55.9716 111.664 57.0167 113.726 57.9665 115.778C59.0211 118.056 60.0793 120.438 62.1012 122.077C62.3462 122.275 62.0147 122.633 61.7701 122.434C58.2523 119.584 57.6781 114.811 54.8661 111.454C53.554 109.888 51.7478 108.696 49.6022 108.728C47.7259 108.755 45.9747 109.55 44.2329 110.136C42.4039 110.752 40.5717 111.042 38.6408 110.771C36.6656 110.494 34.7799 109.75 33.0233 108.852C29.0556 106.787 25.447 104.128 22.3297 100.975C18.7514 97.3944 15.8302 93.2462 13.6925 88.7094C13.5603 88.4286 14.0331 88.2837 14.1644 88.5628H14.1644Z" fill="white"/>
<path d="M29.8707 106.774C28.9157 107.991 27.5465 108.838 26.0075 109.165C24.4686 109.492 22.8601 109.276 21.4694 108.558C21.1885 108.412 21.4095 107.981 21.6908 108.127C22.9845 108.799 24.4828 108.999 25.9152 108.692C27.3477 108.385 28.6199 107.591 29.5022 106.453C29.6943 106.206 30.0617 106.529 29.8707 106.774L29.8707 106.774Z" fill="white"/>
<path d="M43.0166 110.153C42.6147 107.05 41.0233 104.209 38.5597 102.195C38.3155 101.996 38.6469 101.638 38.8908 101.837C41.4505 103.938 43.1004 106.898 43.5113 110.127C43.5503 110.435 43.0554 110.459 43.0166 110.153V110.153Z" fill="white"/>
<path d="M19.3658 97.1686C19.8363 96.7727 20.1982 96.2695 20.4189 95.7042C20.6397 95.1389 20.7123 94.5292 20.6305 93.9299C20.5875 93.6227 21.0825 93.599 21.1252 93.9042C21.2125 94.5668 21.1313 95.24 20.8889 95.8651C20.6464 96.4902 20.25 97.0482 19.7343 97.4902C19.6892 97.5358 19.628 97.5631 19.5631 97.5664C19.4981 97.5698 19.4342 97.549 19.3845 97.5083C19.3359 97.4655 19.3067 97.4058 19.3032 97.3422C19.2997 97.2786 19.3222 97.2162 19.3658 97.1686V97.1686Z" fill="white"/>
<path d="M45.1947 67.5039C45.2271 67.695 45.2595 67.8861 45.2957 68.079C45.7455 70.6458 46.4093 73.1729 47.2805 75.6353C47.3448 75.8267 47.4129 76.0198 47.4826 76.209C49.6468 82.1197 52.9223 87.589 57.1426 92.3387C58.8237 94.2272 60.6504 95.9888 62.6068 97.6082C65.3087 99.8445 68.4216 102.06 70.154 104.948C70.3382 105.247 70.5031 105.557 70.6479 105.876L63.2902 122.174C63.2544 122.203 63.2222 122.234 63.1863 122.263L62.9231 122.927C62.8162 122.85 62.7071 122.768 62.6002 122.692C62.5379 122.647 62.4774 122.599 62.4152 122.555C62.3742 122.525 62.3333 122.494 62.2946 122.468C62.2809 122.458 62.2673 122.448 62.2575 122.439C62.2187 122.414 62.1855 122.386 62.1506 122.363C61.539 121.907 60.9296 121.447 60.3225 120.982C60.3186 120.98 60.3186 120.98 60.3164 120.975C55.6997 117.418 51.3482 113.456 47.7544 108.978C47.6463 108.843 47.5343 108.707 47.4296 108.565C45.8212 106.538 44.3861 104.387 43.1387 102.133C42.4597 100.896 41.8456 99.6271 41.2988 98.3304C39.8925 94.9773 39.0381 91.4303 38.767 87.8194C38.2275 80.621 40.0649 73.3353 44.8267 67.9146C44.9486 67.776 45.0689 67.6409 45.1947 67.5039Z" fill="#E6E6E6"/>
<path d="M45.3911 67.6313C43.3873 76.4536 44.2971 85.6647 47.9914 93.9564C48.794 95.7281 49.767 97.4575 51.1024 98.907C52.4153 100.31 54.0912 101.347 55.956 101.908C57.6839 102.466 59.5178 102.842 61.0761 103.797C62.7185 104.805 63.6999 106.432 64.0366 108.269C64.4486 110.518 64.0041 112.776 63.4903 114.969C62.9199 117.404 62.2877 119.925 62.8864 122.415C62.9589 122.717 62.4725 122.809 62.4001 122.507C61.3585 118.175 63.8596 114.028 63.6957 109.704C63.6192 107.686 62.9161 105.679 61.1834 104.45C59.6682 103.375 57.7774 102.985 56.0228 102.435C54.1805 101.858 52.5381 101.018 51.1645 99.6727C49.7593 98.2966 48.7146 96.6005 47.8689 94.8565C45.9815 90.8878 44.7485 86.6557 44.2149 82.3151C43.5777 77.3646 43.8173 72.3446 44.9234 67.4725C44.992 67.171 45.4593 67.3317 45.3911 67.6313Z" fill="white"/>
<path d="M46.64 91.3545C45.1232 91.7675 43.5046 91.6435 42.0733 91.0047C40.6419 90.3658 39.491 89.2537 38.8261 87.867C38.6926 87.586 39.1361 87.3713 39.2698 87.6527C39.8865 88.9451 40.9586 89.9809 42.2928 90.5732C43.6269 91.1654 45.1351 91.2751 46.5452 90.8823C46.8517 90.7973 46.9448 91.27 46.64 91.3545H46.64Z" fill="white"/>
<path d="M55.0415 101.737C56.6442 99.0253 57.1354 95.8262 56.4169 92.7781C56.3455 92.4761 56.8318 92.3844 56.9032 92.686C57.6447 95.8593 57.1266 99.1874 55.4524 102.006C55.2926 102.275 54.8826 102.005 55.0415 101.737Z" fill="white"/>
<path d="M44.2082 77.5434C44.8294 77.5024 45.4304 77.3122 45.9571 76.9899C46.4839 76.6675 46.9199 76.2232 47.2262 75.6968C47.3823 75.4264 47.7922 75.6969 47.6371 75.9656C47.296 76.5456 46.8137 77.0358 46.2326 77.3931C45.6514 77.7505 44.9889 77.9642 44.3031 78.0156C44.2389 78.0257 44.1731 78.0117 44.1191 77.9764C44.0652 77.9411 44.027 77.8872 44.0125 77.8256C44.0003 77.763 44.014 77.6983 44.0506 77.6454C44.0873 77.5926 44.1439 77.556 44.2082 77.5435V77.5434Z" fill="white"/>
<path d="M70.2374 22.8197L82.6478 163.889L57.8271 165.702V24.6145C60.7847 22.7141 65.0303 22.4168 70.2374 22.8197Z" fill="#CCCCCC"/>
<path d="M131.497 22.8197L119.087 163.889L143.908 165.702V24.6145C140.95 22.7141 136.704 22.4168 131.497 22.8197Z" fill="#CCCCCC"/>
<path d="M140.191 171.532H61.2795C60.0141 171.531 58.801 171.042 57.9063 170.173C57.0115 169.304 56.5082 168.126 56.5068 166.898V26.6848C56.5083 25.4562 57.0116 24.2782 57.9063 23.4094C58.801 22.5406 60.0141 22.0519 61.2795 22.0505H140.191C141.456 22.0519 142.67 22.5406 143.564 23.4094C144.459 24.2782 144.962 25.4562 144.964 26.6848V166.898C144.962 168.126 144.459 169.304 143.564 170.173C142.67 171.042 141.456 171.531 140.191 171.532ZM61.2795 23.5889C60.4341 23.5898 59.6237 23.9163 59.026 24.4967C58.4283 25.0771 58.0921 25.864 58.0911 26.6848V166.898C58.0921 167.718 58.4283 168.505 59.026 169.086C59.6237 169.666 60.4341 169.993 61.2795 169.994H140.191C141.036 169.993 141.847 169.666 142.445 169.086C143.042 168.505 143.379 167.718 143.379 166.898V26.6848C143.379 25.864 143.042 25.0771 142.445 24.4967C141.847 23.9163 141.036 23.5898 140.191 23.5889L61.2795 23.5889Z" fill="#CCCCCC"/>
<path d="M144.172 45.3829H57.299V46.9213H144.172V45.3829Z" fill="#CCCCCC"/>
<path d="M144.172 71.023H57.299V72.5614H144.172V71.023Z" fill="#CCCCCC"/>
<path d="M85.49 22.8197H83.9057V92.8171H85.49V22.8197Z" fill="#CCCCCC"/>
<path d="M117.565 22.8197H115.981V92.8171H117.565V22.8197Z" fill="#CCCCCC"/>
<path d="M154.074 175.763H50.0376C48.1468 175.763 46.3334 175.033 44.9964 173.735C43.6593 172.437 42.9082 170.676 42.9082 168.84C42.9082 167.004 43.6593 165.243 44.9964 163.945C46.3334 162.646 48.1468 161.917 50.0376 161.917H154.074C155.964 161.917 157.778 162.646 159.115 163.945C160.452 165.243 161.203 167.004 161.203 168.84C161.203 170.676 160.452 172.437 159.115 173.735C157.778 175.033 155.964 175.763 154.074 175.763Z" fill="#CCCCCC"/>
<path d="M144.172 89.2275H57.8271V94.3555H144.172V89.2275Z" fill="#CCCCCC"/>
<path d="M85.7359 105.548L85.6263 105.496C79.7402 102.735 72.0322 102.738 60.633 105.505L60.5113 105.535L60.4748 105.418C59.2689 101.579 57.9029 97.2302 60.4692 95.0907C60.5051 88.8126 66.1764 83.7148 73.1424 83.7148C80.107 83.7148 85.7775 88.81 85.8156 95.0864C89.6331 97.9206 87.8137 102.109 85.7975 105.446L85.7359 105.548Z" fill="#2F2E41"/>
<path d="M121.914 92.1043C121.808 92.613 121.589 93.0931 121.272 93.5107C120.955 93.9283 120.547 94.2733 120.077 94.5213C119.608 94.7694 119.088 94.9145 118.555 94.9464C118.021 94.9783 117.487 94.8962 116.99 94.706L96.1889 115.004L94.333 108.701L114.993 89.852C115.377 89.0621 116.046 88.4365 116.874 88.0939C117.702 87.7513 118.63 87.7154 119.483 87.993C120.337 88.2707 121.055 88.8425 121.503 89.6003C121.951 90.358 122.097 91.249 121.914 92.1043L121.914 92.1043Z" fill="#FFB6B6"/>
<path d="M70.5036 111.645C70.5036 111.645 68.6164 115.798 73.2731 118.359C77.9298 120.92 94.2051 117.382 96.8459 116.888C99.4868 116.394 109.35 102.061 109.35 102.061L107.955 95.0316L94.8743 106.058L70.5036 111.645Z" fill="#6C63FF"/>
<path d="M67.0688 134.61L67.3329 139.482C67.3329 139.482 66.5535 143.797 67.1945 144.729C67.8307 145.655 85.1897 145.772 85.1897 145.772C85.1897 145.772 86.3367 139.768 87.3246 134.513L67.0688 134.61Z" fill="#FFB6B6"/>
<path d="M116.978 199.024L120.607 198.312L119.568 184.078L114.212 185.129L116.978 199.024Z" fill="#FFB6B6"/>
<path d="M122.176 180.501L125.55 179.027L121.174 165.408L116.194 167.583L122.176 180.501Z" fill="#FFB6B6"/>
<path d="M125.115 172.827L118.763 176.32L103.096 151.874C92.098 159.069 81.3433 162.514 70.5015 164.353C66.836 164.987 63.0987 164.665 62.395 161.043C62.3621 160.873 62.3359 160.703 62.3163 160.532C61.8835 156.575 66.9526 151.503 67.597 146.661L81.4703 145.853L83.1811 147.982L99.2251 138.404C102.452 136.478 106.695 137.52 108.704 140.731C108.81 140.901 108.908 141.075 108.999 141.253L125.115 172.827Z" fill="#2F2E41"/>
<path d="M121.227 189.272L113.958 189.928L100.779 163.754C87.7094 165.937 75.3797 166.636 64.715 163.996C61.1042 163.114 58.897 159.494 59.7852 155.909C59.8267 155.742 59.8747 155.576 59.9292 155.412C61.2055 151.631 64.5466 148.955 67.1789 144.796L86.4062 145.08L84.2587 152.275L102.937 149.928C106.693 149.456 110.123 152.096 110.599 155.824C110.624 156.021 110.64 156.219 110.648 156.418L121.227 189.272Z" fill="#2F2E41"/>
<path d="M74.5764 101.826C78.8883 101.826 82.3838 98.4322 82.3838 94.2452C82.3838 90.0582 78.8883 86.664 74.5764 86.664C70.2645 86.664 66.769 90.0582 66.769 94.2452C66.769 98.4322 70.2645 101.826 74.5764 101.826Z" fill="#FFB6B6"/>
<path d="M69.9993 104.563L77.158 105.381C77.4599 105.415 77.7432 105.541 77.9684 105.739C78.1936 105.937 78.3495 106.199 78.4144 106.487L79.5528 111.545L86.6496 119.661C86.6496 119.661 89.198 124.3 88.2424 129.559C87.2868 134.817 86.8668 138.725 86.8668 138.725C86.8668 138.725 67.8298 145.656 67.1927 144.728C66.5556 143.8 66.3488 139.585 66.3488 139.585L63.8004 112.055C63.8004 112.055 66.6674 107.415 68.2601 107.415C69.2881 107.382 69.1562 105.135 69.9993 104.563Z" fill="#6C63FF"/>
<path d="M87.0603 140.417C88.0642 140.417 88.878 139.469 88.878 138.299C88.878 137.129 88.0642 136.181 87.0603 136.181C86.0564 136.181 85.2426 137.129 85.2426 138.299C85.2426 139.469 86.0564 140.417 87.0603 140.417Z" fill="#6C63FF"/>
<path d="M115.177 195.359L120.71 192.666L121.753 195.029L128.749 196.402C129.095 196.47 129.409 196.643 129.646 196.896C129.883 197.15 130.03 197.47 130.066 197.811C130.103 198.151 130.026 198.494 129.847 198.789C129.668 199.084 129.397 199.316 129.073 199.451L122.313 202.265L120.116 200.413L120.693 202.939L118.144 204L115.177 195.359Z" fill="#2F2E41"/>
<path d="M120.593 179.367L126.076 176.581L127.162 178.925L134.182 180.178C134.529 180.24 134.846 180.408 135.087 180.658C135.329 180.907 135.482 181.225 135.524 181.565C135.567 181.905 135.496 182.249 135.323 182.547C135.149 182.845 134.882 183.081 134.561 183.222L127.853 186.15L125.623 184.337L126.245 186.852L123.716 187.957L120.593 179.367Z" fill="#2F2E41"/>
<path d="M70.1158 91.8672C68.0531 91.8704 66.04 91.2537 64.3527 90.1017L64.2963 90.0633V89.9966C64.2986 88.0592 65.0922 86.2018 66.503 84.8319C67.9138 83.462 69.8266 82.6914 71.8218 82.6892H74.9904C76.9856 82.6914 78.8984 83.462 80.3092 84.8319C81.72 86.2018 82.5136 88.0592 82.5158 89.9966C82.5137 90.44 82.3334 90.8651 82.0133 91.1814C81.6932 91.4976 81.2586 91.68 80.8021 91.6898L70.2938 91.8657C70.2345 91.8667 70.1749 91.8672 70.1158 91.8672Z" fill="#2F2E41"/>
<path d="M83.0439 88.5932C84.0543 88.0268 84.2231 86.474 83.421 85.1251C82.619 83.7761 81.1497 83.1417 80.1394 83.7081C79.129 84.2745 78.9602 85.8273 79.7622 87.1763C80.5643 88.5252 82.0336 89.1596 83.0439 88.5932Z" fill="#2F2E41"/>
<path d="M67.2423 87.0883C68.3766 85.9868 68.6274 84.4446 67.8025 83.6435C66.9775 82.8425 65.3892 83.086 64.2549 84.1874C63.1206 85.2889 62.8698 86.8311 63.6948 87.6322C64.5197 88.4332 66.108 88.1897 67.2423 87.0883Z" fill="#2F2E41"/>
<path d="M136.339 156.404H128.547C128.371 156.404 128.197 156.441 128.037 156.513C127.878 156.584 127.736 156.689 127.623 156.819C127.335 156.768 127.04 156.783 126.76 156.865C126.48 156.946 126.223 157.091 126.012 157.287C125.801 157.483 125.64 157.725 125.544 157.993C125.448 158.26 125.418 158.547 125.458 158.828C125.497 159.109 125.605 159.377 125.772 159.61C125.939 159.843 126.161 160.034 126.419 160.167C126.677 160.301 126.963 160.373 127.256 160.378C127.548 160.384 127.837 160.321 128.1 160.197L128.746 162.236C128.823 162.478 128.977 162.689 129.186 162.84C129.396 162.99 129.649 163.071 129.91 163.071H134.976C135.237 163.071 135.49 162.99 135.7 162.84C135.909 162.689 136.064 162.478 136.14 162.236L137.503 157.935C137.559 157.758 137.572 157.571 137.54 157.388C137.508 157.206 137.432 157.033 137.319 156.884C137.206 156.736 137.058 156.615 136.888 156.531C136.718 156.448 136.53 156.404 136.339 156.404ZM127.294 159.866C126.944 159.866 126.608 159.731 126.36 159.49C126.113 159.25 125.974 158.924 125.974 158.584C125.974 158.244 126.113 157.918 126.36 157.677C126.608 157.437 126.944 157.302 127.294 157.302C127.318 157.302 127.341 157.308 127.364 157.309C127.312 157.515 127.318 157.731 127.383 157.935L127.94 159.695C127.744 159.805 127.521 159.864 127.294 159.866Z" fill="#3F3D56"/>
<path d="M101.541 150.839C101.009 150.886 100.473 150.82 99.9696 150.645C99.4666 150.47 99.0093 150.189 98.6299 149.824C98.2505 149.458 97.9583 149.017 97.7738 148.53C97.5892 148.043 97.5169 147.522 97.5619 147.005L71.5691 133.48L77.2544 129.945L101.777 143.754C102.667 143.885 103.476 144.328 104.052 145C104.627 145.672 104.929 146.525 104.9 147.398C104.871 148.272 104.513 149.104 103.894 149.738C103.275 150.372 102.438 150.764 101.541 150.839Z" fill="#FFB6B6"/>
<path d="M67.5131 108.623C67.5131 108.623 62.8747 108.059 61.6842 113.126C60.4937 118.192 68.654 132.316 69.8991 134.631C71.1442 136.946 88.1141 142.008 88.1141 142.008L94.6485 138.694L80.0174 129.69L67.5131 108.623Z" fill="#6C63FF"/>
<path d="M100.207 87.6891H101.792C102.562 87.6891 103.301 87.9862 103.845 88.5151C104.39 89.0441 104.696 89.7615 104.696 90.5095H97.3026C97.3026 89.7615 97.6087 89.0441 98.1534 88.5151C98.6981 87.9862 99.4369 87.6891 100.207 87.6891Z" fill="#CCCCCC"/>
<path d="M49.9693 35.0668C58.6378 35.0668 65.665 28.2432 65.665 19.8259C65.665 11.4085 58.6378 4.58492 49.9693 4.58492C41.3009 4.58492 34.2737 11.4085 34.2737 19.8259C34.2737 28.2432 41.3009 35.0668 49.9693 35.0668Z" fill="#FF6584"/>
<path d="M98.0257 19.0316C93.8719 14.8003 89.0476 10.9403 83.3366 8.90056C81.7458 8.32997 80.0963 7.92746 78.4167 7.70002C78.4032 7.69822 78.3904 7.70088 78.377 7.69982C78.3497 7.69298 78.322 7.6877 78.294 7.684C75.9449 7.3934 73.5605 7.53319 71.2644 8.0961C70.1416 8.3697 69.0462 8.74023 67.9913 9.20327C66.9327 9.70475 65.907 10.2692 64.9201 10.8934C62.831 12.1077 60.5309 12.9409 58.1333 13.3519C56.9298 13.5623 55.7108 13.6785 54.4882 13.6993C53.4273 13.72 52.4268 13.7558 51.4217 14.1279C50.348 14.52 49.3836 15.1503 48.6053 15.9686C47.827 16.7868 47.2565 17.7704 46.9392 18.8408C46.9148 18.9362 46.9221 19.0366 46.9603 19.1275C46.9984 19.2185 47.0653 19.2954 47.1514 19.3471C47.4233 19.5362 47.6883 19.7507 47.974 19.9192C48.2281 20.0321 48.4995 20.104 48.7775 20.132C49.2317 20.225 49.6865 20.3154 50.1418 20.403C51.8193 20.7257 53.5037 21.0114 55.1951 21.26C58.6176 21.7631 62.0585 22.1175 65.5179 22.3232C72.4482 22.7308 79.4022 22.5279 86.2948 21.7168C90.1684 21.2613 94.0158 20.6151 97.822 19.7808C97.8991 19.7589 97.969 19.7181 98.025 19.6623C98.081 19.6064 98.1213 19.5375 98.1418 19.4621C98.1622 19.3867 98.1623 19.3074 98.142 19.232C98.1217 19.1566 98.0816 19.0876 98.0257 19.0316Z" fill="#E6E6E6"/>
<path d="M50.7143 29.2218C49.1235 28.6512 47.474 28.2487 45.7943 28.0213C45.7808 28.0195 45.7681 28.0221 45.7546 28.0211C45.7273 28.0142 45.6996 28.009 45.6716 28.0053C43.3225 27.7147 40.9381 27.8544 38.642 28.4174C37.5192 28.691 36.4238 29.0615 35.369 29.5245C34.3104 30.026 33.2847 30.5905 32.2977 31.2147C30.2087 32.4289 27.9086 33.2621 25.5109 33.6732C24.3074 33.8836 23.0885 33.9997 21.8658 34.0206C20.805 34.0412 19.8045 34.077 18.7993 34.4492C17.7257 34.8412 16.7612 35.4715 15.9829 36.2898C15.2047 37.1081 14.6341 38.0917 14.3169 39.1621C14.2924 39.2574 14.2998 39.3578 14.3379 39.4488C14.376 39.5398 14.443 39.6166 14.529 39.6683C14.8009 39.8574 15.066 40.0719 15.3516 40.2404C15.6058 40.3533 15.8772 40.4252 16.1552 40.4532C16.6094 40.5463 17.0641 40.6366 17.5194 40.7242C19.1969 41.047 20.8813 41.3326 22.5727 41.5813C25.9952 42.0844 29.4362 42.4387 32.8956 42.6444C39.8258 43.052 46.7799 42.8491 53.6724 42.0381C57.5461 41.5825 61.3934 40.9363 65.1996 40.1021C65.2767 40.0802 65.3466 40.0393 65.4027 39.9835C65.4587 39.9276 65.4989 39.8587 65.5194 39.7833C65.5399 39.7079 65.54 39.6287 65.5196 39.5533C65.4993 39.4778 65.4592 39.4088 65.4033 39.3528C61.2495 35.1216 56.4253 31.2616 50.7143 29.2218Z" fill="#E6E6E6"/>
<path d="M163.902 142.841L151.832 127.443L142.308 132.673L162.49 155.944L163.902 142.841Z" fill="#3F3D56"/>
<path d="M191.706 117.811C191.974 124.264 193.004 130.665 194.774 136.89C194.394 137.759 194.001 138.622 193.597 139.479C192.065 142.726 190.349 145.888 188.458 148.951C183.155 157.552 176.535 165.32 168.826 171.988C167.992 172.709 167.146 173.418 166.288 174.114C161.401 167.571 158.763 160.35 157.72 152.92C157.588 151.976 157.48 151.023 157.398 150.074V150.069C157.198 147.763 157.133 145.448 157.205 143.136C157.208 142.951 157.213 142.764 157.221 142.577C157.313 140.105 157.543 137.628 157.889 135.174V135.172C157.929 134.89 157.968 134.608 158.013 134.326C158.14 133.48 158.282 132.634 158.438 131.793C159.345 126.942 160.61 122.162 162.225 117.488V117.485C162.27 117.349 162.315 117.216 162.365 117.083C162.539 116.575 162.716 116.073 162.898 115.57C162.909 115.531 162.924 115.492 162.94 115.455C163.175 114.798 163.416 114.147 163.661 113.501C163.727 113.321 163.796 113.142 163.867 112.963C164.144 112.242 164.427 111.527 164.715 110.822C164.805 110.596 164.897 110.37 164.989 110.147C165.061 109.975 165.129 109.804 165.203 109.634V109.632C165.623 108.624 166.048 107.636 166.479 106.668C167.685 103.945 168.926 101.383 170.136 99.022L170.138 99.0194C175.158 89.2429 179.721 82.8944 179.721 82.8944L196.855 88.2788C194.811 91.7992 193.23 96.9913 192.363 103.117C191.696 107.985 191.476 112.902 191.706 117.808L191.706 117.811Z" fill="#3F3D56"/>
<path d="M163.228 116.244C163.128 116.016 163.014 115.793 162.898 115.57C162.296 114.438 161.52 113.4 160.598 112.493C160.461 112.357 160.318 112.221 160.17 112.093C158.58 110.671 156.646 109.66 154.547 109.156C152.448 108.651 150.252 108.669 148.161 109.206L148.151 109.211L148.072 109.232L148.09 109.319C148.169 109.725 148.284 110.124 148.433 110.511C148.473 110.616 148.518 110.716 148.563 110.816C148.581 110.863 148.605 110.904 148.626 110.95C148.626 110.95 148.624 110.952 148.629 110.952C148.629 110.955 148.631 110.957 148.631 110.96C148.682 111.055 148.729 111.152 148.782 111.245C148.674 111.145 148.571 111.042 148.47 110.937C148.373 110.839 148.283 110.737 148.193 110.634C147.885 110.286 147.607 109.914 147.361 109.522L147.319 109.452L147.245 109.481C146.249 109.816 145.298 110.268 144.415 110.827L144.319 110.888C143.645 111.318 142.885 111.606 142.088 111.732C141.291 111.859 140.476 111.821 139.696 111.622C138.465 111.313 137.182 111.257 135.928 111.456C134.674 111.655 133.476 112.105 132.411 112.778C131.705 113.225 131.067 113.765 130.515 114.383C130.467 114.437 130.42 114.493 130.372 114.547C130.272 114.665 130.177 114.786 130.085 114.909C129.092 116.197 128.483 117.725 128.323 119.326L128.318 119.385L128.368 119.419C129.262 120.013 130.272 120.422 131.336 120.619C130.668 120.709 129.991 120.726 129.319 120.667H129.316C129.011 120.643 128.708 120.602 128.408 120.544L128.352 120.534H128.35L128.281 120.521L128.292 120.644C128.37 122.211 128.878 123.729 129.762 125.042L129.789 125.077C129.799 125.091 129.807 125.104 129.815 125.118C130.19 125.675 130.501 126.269 130.745 126.89C131.362 128.434 131.498 130.12 131.135 131.739C130.725 133.47 130.862 135.281 131.527 136.935C132.192 138.59 133.355 140.012 134.864 141.015C136.19 141.901 137.735 142.428 139.339 142.541C139.559 142.559 139.78 142.569 140.002 142.569C141.272 142.573 142.528 142.319 143.691 141.823L143.733 141.808L143.744 141.761C143.967 141.061 144.281 140.391 144.679 139.767C144.549 140.258 144.483 140.764 144.483 141.272V141.441L144.634 141.356C144.763 141.282 144.895 141.202 145.014 141.128C145.727 140.676 146.373 140.131 146.934 139.508C147.153 139.262 147.375 139.023 147.607 138.785L147.61 138.782C148.061 138.315 148.539 137.859 149.035 137.423C150.092 136.502 151.222 135.664 152.415 134.918C153.608 134.174 154.855 133.516 156.146 132.949H156.149C156.294 132.882 156.442 132.818 156.587 132.757C157.23 132.485 157.849 132.162 158.438 131.793C158.459 131.78 158.478 131.77 158.496 131.757C161.049 130.134 162.926 127.684 163.792 124.843C164.659 122.003 164.459 118.955 163.228 116.244L163.228 116.244Z" fill="#6C63FF"/>
<path opacity="0.15" d="M131.57 135.379C131.498 135.691 131.444 136.006 131.407 136.324C130.915 134.815 130.844 133.207 131.2 131.663C131.255 131.427 131.297 131.188 131.329 130.948C131.817 132.377 131.9 133.908 131.57 135.379Z" fill="black"/>
<path opacity="0.15" d="M131.77 124.257C130.988 124.363 130.195 124.366 129.412 124.268C129.207 123.892 129.03 123.503 128.882 123.103C129.754 123.674 130.737 124.067 131.77 124.257Z" fill="black"/>
<path opacity="0.15" d="M129.349 120.585C129.06 121.302 128.868 122.052 128.778 122.817C128.537 122.089 128.395 121.333 128.355 120.569L128.349 120.446L128.473 120.469C128.763 120.522 129.055 120.561 129.349 120.585Z" fill="black"/>
<path opacity="0.15" d="M132.479 112.702C133.543 112.028 134.74 111.577 135.994 111.378C137.247 111.179 138.53 111.235 139.76 111.544C140.541 111.744 141.356 111.783 142.153 111.657C142.95 111.53 143.711 111.243 144.386 110.812L144.481 110.751C145.364 110.191 146.314 109.738 147.31 109.401L147.386 109.376L147.428 109.443C147.822 110.075 148.299 110.655 148.848 111.167C148.514 110.564 148.281 109.915 148.156 109.241L148.138 109.153L148.228 109.129C150.189 108.626 152.244 108.579 154.227 108.993C156.209 109.408 158.063 110.271 159.637 111.514C161.21 112.756 162.459 114.342 163.281 116.142C164.102 117.943 164.474 119.906 164.366 121.873C163.95 120.269 163.211 118.762 162.191 117.439C161.171 116.115 159.89 115.001 158.424 114.161C156.957 113.322 155.334 112.773 153.647 112.547C151.96 112.321 150.244 112.423 148.598 112.845L148.508 112.869L148.526 112.957C148.651 113.63 148.884 114.28 149.218 114.883C148.669 114.371 148.192 113.791 147.798 113.159L147.756 113.092L147.68 113.117C146.684 113.453 145.734 113.907 144.851 114.467L144.756 114.528C144.081 114.959 143.32 115.246 142.523 115.373C141.726 115.499 140.911 115.46 140.13 115.26C138.086 114.745 135.921 114.934 134.005 115.796C132.088 116.657 130.539 118.138 129.621 119.984C129.212 119.794 128.816 119.579 128.434 119.341L128.383 119.309L128.389 119.25C128.52 117.93 128.956 116.656 129.664 115.522C130.372 114.389 131.334 113.425 132.479 112.702Z" fill="black"/>
<path d="M230.643 47.188L230.392 47.0265L230.21 47.2572C228.8 48.9811 227.678 50.9098 226.885 52.9724C226.995 50.5962 227.423 48.244 228.158 45.9752L228.237 45.7368L228.01 45.6111C225.056 43.9867 221.908 42.7192 218.637 41.8369L218.28 41.7446C215.773 41.0766 213.439 39.9029 211.43 38.3001C209.421 36.6973 207.783 34.7013 206.622 32.4424C203.925 27.2581 199.663 22.996 194.406 20.2248C189.148 17.4537 183.146 16.3052 177.199 16.9327H177.196C177.133 16.9378 177.067 16.9455 177.004 16.9532C176.895 16.9635 176.79 16.9763 176.684 16.9891C176.468 17.0173 176.256 17.0455 176.045 17.0763C175.866 17.1019 175.683 17.1301 175.504 17.1609C175.409 17.1737 175.316 17.1891 175.224 17.2071C175.132 17.2224 175.037 17.2378 174.944 17.2558H174.941C173.169 17.5814 171.431 18.0664 169.75 18.7044H169.748V18.707L169.322 18.8685C168.884 19.0429 168.449 19.2275 168.018 19.4223C167.92 19.4659 167.825 19.5121 167.728 19.5557C167.701 19.5685 167.672 19.5813 167.646 19.5967C167.368 19.7249 167.094 19.8582 166.822 19.9993C166.782 20.0172 166.743 20.0377 166.703 20.0582L166.45 20.189C165.892 20.4813 165.345 20.7915 164.807 21.1197C164.762 21.1454 164.72 21.171 164.675 21.1992C164.628 21.23 164.577 21.2607 164.53 21.2915C164.501 21.3069 164.472 21.3274 164.443 21.3454C164.361 21.3941 164.282 21.4453 164.203 21.4992C164.044 21.5992 163.886 21.7017 163.73 21.8069C163.569 21.912 163.41 22.0223 163.252 22.1325L163.094 22.2428L163.123 22.4325C163.149 22.5889 163.173 22.7453 163.202 22.8991C163.228 23.053 163.255 23.2043 163.284 23.3555C163.329 23.6094 163.379 23.8606 163.429 24.1042C163.463 24.2658 163.495 24.4247 163.532 24.5811C163.566 24.7427 163.603 24.9042 163.643 25.0657C163.719 25.399 163.801 25.7221 163.888 26.0401C163.931 26.199 163.975 26.358 164.023 26.5144C164.049 26.6093 164.076 26.7041 164.105 26.7964C164.126 26.8605 164.147 26.9246 164.168 26.9887C164.173 27.0092 164.179 27.0323 164.187 27.0554C164.193 27.0771 164.2 27.0985 164.208 27.1195C164.237 27.2144 164.266 27.3067 164.295 27.3964C164.311 27.4451 164.327 27.4938 164.345 27.54C164.382 27.6502 164.422 27.7631 164.461 27.8708C164.504 27.9938 164.548 28.1169 164.593 28.2374C164.604 28.2682 164.614 28.2964 164.625 28.3271C164.633 28.3502 164.641 28.3733 164.651 28.3964C164.662 28.422 164.673 28.4502 164.683 28.4759C164.728 28.5912 164.773 28.7092 164.82 28.8246C164.836 28.8656 164.852 28.9092 164.871 28.9502C165.299 29.9947 165.825 30.9989 166.442 31.9501C165.758 31.3809 165.099 30.7775 164.467 30.1399C163.49 29.1541 162.589 28.0991 161.773 26.9836C161.707 26.8964 161.641 26.8067 161.581 26.717C161.456 26.5452 161.335 26.3734 161.216 26.199C161.089 26.0195 160.968 25.8324 160.849 25.6478C160.77 25.5247 160.691 25.399 160.614 25.276C160.538 25.158 160.466 25.0427 160.398 24.9247L160.192 24.5811H160.189V24.5837L159.899 24.8606C159.782 24.9709 159.666 25.0811 159.553 25.1914C156.004 28.6587 153.433 32.9543 152.088 37.6653L152.048 37.8063L152.009 37.9524C151.932 38.2139 151.856 38.4678 151.774 38.7267V38.7293C151.694 38.9857 151.61 39.2421 151.52 39.4934C151.438 39.7318 151.354 39.9677 151.264 40.2036C151.235 40.2831 151.203 40.3626 151.169 40.4421C151.114 40.5959 151.053 40.7472 150.992 40.901C150.963 40.9703 150.934 41.042 150.905 41.1113C150.834 41.2805 150.762 41.4497 150.691 41.6164C150.681 41.642 150.667 41.6702 150.654 41.6959C150.633 41.7472 150.609 41.7984 150.588 41.8471C150.533 41.9702 150.475 42.0959 150.419 42.2189C150.38 42.2984 150.343 42.3805 150.306 42.4599C150.29 42.4958 150.271 42.5317 150.255 42.5676C150.158 42.7728 150.057 42.9753 149.952 43.1753C149.833 43.4112 149.711 43.6471 149.582 43.8779C149.469 44.0932 149.35 44.3035 149.226 44.5137C149.012 44.8855 148.787 45.2547 148.555 45.6137C148.465 45.7521 148.375 45.8906 148.283 46.0291C148.262 46.0624 148.241 46.0957 148.22 46.1265C148.143 46.247 148.064 46.3624 147.982 46.4803C147.926 46.5598 147.871 46.6393 147.816 46.7162C147.723 46.8547 147.625 46.988 147.525 47.1188C147.499 47.1598 147.47 47.1982 147.441 47.2367C147.293 47.4367 147.145 47.6316 146.994 47.8264C146.989 47.829 146.989 47.8316 146.986 47.8341C146.981 47.8341 146.981 47.8367 146.979 47.8392C146.913 47.9239 146.847 48.0085 146.778 48.0905C146.688 48.211 146.59 48.329 146.493 48.4444C146.334 48.6392 146.168 48.8366 145.999 49.0289C145.994 49.0341 145.991 49.0392 145.986 49.0418C145.111 50.0399 144.163 50.9757 143.15 51.8417C143.131 51.8571 143.118 51.8724 143.1 51.8853C142.957 52.0058 142.814 52.1263 142.667 52.2442C142.606 52.2929 142.545 52.3416 142.484 52.3904C142.384 52.4724 142.281 52.5545 142.181 52.6288C142.169 52.6406 142.156 52.6509 142.141 52.6596C142.051 52.7314 141.964 52.798 141.874 52.8647C141.766 52.9493 141.658 53.0288 141.547 53.1083C141.024 53.4929 140.487 53.8561 139.936 54.198C139.854 54.2518 139.767 54.3057 139.683 54.357C139.633 54.3877 139.582 54.4185 139.535 54.4441C139.334 54.5646 139.134 54.6826 138.933 54.7954C138.732 54.9108 138.526 55.021 138.323 55.1287C137.887 55.3595 137.457 55.6005 137.037 55.8518C136.826 55.98 136.615 56.1082 136.406 56.2389C135.577 56.762 134.779 57.3218 134.011 57.9184C133.244 58.5153 132.508 59.1494 131.806 59.8183C131.719 59.9003 131.632 59.985 131.545 60.0721C131.371 60.2388 131.202 60.408 131.04 60.5772C130.782 60.8362 130.533 61.1029 130.288 61.3721C128.993 62.7988 127.847 64.3464 126.866 65.9924C126.373 66.8143 125.926 67.6607 125.524 68.5282C125.221 69.1769 124.944 69.841 124.693 70.5128C124.526 70.9615 124.371 71.4144 124.225 71.8717C124.154 72.0999 124.085 72.3306 124.019 72.5614C123.795 73.3434 123.607 74.1331 123.454 74.9254C123.33 75.5613 123.23 76.198 123.153 76.8356C123.114 77.1561 123.082 77.4766 123.053 77.7945C122.985 78.576 122.95 79.3582 122.949 80.1412C122.944 82.4901 123.238 84.8306 123.824 87.1096C123.953 87.6121 124.097 88.1121 124.254 88.6095C124.334 88.8582 124.418 89.1044 124.503 89.3505C124.716 89.9659 124.953 90.5753 125.213 91.1787C125.369 91.5402 125.532 91.8992 125.704 92.2556C126.795 94.5213 128.187 96.6384 129.844 98.5528C130.116 98.8681 130.397 99.1784 130.687 99.4835C130.689 99.4835 130.687 99.486 130.687 99.486C131.405 100.247 132.166 100.969 132.965 101.65H132.968C133.287 101.924 133.612 102.19 133.942 102.447C133.945 102.445 133.945 102.447 133.945 102.447C134.278 102.709 134.613 102.96 134.956 103.204C135.128 103.324 135.302 103.445 135.479 103.565C135.825 103.804 136.178 104.034 136.538 104.255H136.541C136.9 104.481 137.264 104.696 137.634 104.901C138.376 105.314 139.136 105.701 139.918 106.052L140.05 106.111L140.185 106.052C141.438 105.505 142.73 105.045 144.05 104.676C144.341 104.594 144.634 104.519 144.924 104.447C145.658 104.27 146.398 104.122 147.142 104.001C146.417 104.355 145.716 104.755 145.046 105.199C144.525 105.54 144.013 105.911 143.498 106.322C143.327 106.458 143.155 106.599 142.983 106.742L142.556 107.101L143.092 107.273C143.287 107.334 143.482 107.396 143.678 107.452C143.945 107.534 144.209 107.609 144.467 107.678C145.032 107.832 145.601 107.968 146.173 108.086C146.313 108.114 146.45 108.142 146.59 108.17C146.862 108.222 147.137 108.273 147.412 108.319C147.423 108.322 147.434 108.324 147.446 108.324C147.731 108.37 148.019 108.414 148.304 108.452C148.835 108.527 149.366 108.586 149.896 108.629C149.954 108.637 150.012 108.64 150.073 108.642C150.203 108.652 150.329 108.663 150.459 108.67C150.744 108.688 151.032 108.701 151.32 108.711C151.341 108.711 151.359 108.714 151.38 108.714C151.525 108.719 151.671 108.724 151.816 108.727C151.816 108.727 151.816 108.729 151.819 108.727C151.964 108.729 152.109 108.732 152.254 108.732H153.057C153.207 108.732 153.358 108.734 153.511 108.734C153.722 108.734 153.936 108.737 154.148 108.74C154.203 108.74 154.261 108.742 154.319 108.742C154.657 108.747 154.995 108.755 155.333 108.763C155.354 108.763 155.375 108.765 155.396 108.765C155.734 108.775 156.072 108.786 156.41 108.801C156.484 108.804 156.558 108.806 156.635 108.811C156.96 108.824 157.284 108.84 157.609 108.858C157.702 108.863 157.797 108.87 157.892 108.875C158.137 108.888 158.386 108.904 158.631 108.922C158.776 108.929 158.919 108.94 159.064 108.952C159.65 108.996 160.234 109.045 160.82 109.101C161.015 109.116 161.211 109.137 161.406 109.157C161.929 109.211 162.454 109.27 162.98 109.334C163.215 109.36 163.45 109.391 163.685 109.422C163.711 109.424 163.738 109.427 163.764 109.432C164.055 109.47 164.343 109.509 164.633 109.55C164.823 109.575 165.013 109.604 165.203 109.632C165.399 109.66 165.594 109.688 165.79 109.722C165.895 109.737 166.001 109.755 166.109 109.773C166.362 109.811 166.619 109.852 166.875 109.898C166.898 109.901 166.921 109.904 166.943 109.909C167.487 110.001 168.034 110.098 168.578 110.204C168.897 110.263 169.214 110.324 169.531 110.388C169.779 110.437 170.028 110.488 170.276 110.539C170.318 110.547 170.36 110.557 170.402 110.568C170.412 110.57 170.422 110.572 170.432 110.573C170.806 110.652 171.184 110.734 171.559 110.822C172.861 111.114 174.161 111.439 175.459 111.796C175.757 111.875 176.056 111.96 176.354 112.045C176.481 112.08 176.605 112.116 176.729 112.152C176.988 112.227 177.244 112.301 177.503 112.38C177.73 112.447 177.96 112.516 178.187 112.588C178.329 112.632 178.472 112.675 178.614 112.721C178.836 112.788 179.058 112.857 179.277 112.932C179.465 112.988 179.65 113.047 179.834 113.111C180.098 113.196 180.365 113.283 180.629 113.375C180.706 113.401 180.785 113.427 180.862 113.455C181.184 113.562 181.506 113.673 181.828 113.788C182.142 113.898 182.456 114.011 182.768 114.124C182.984 114.203 183.201 114.28 183.415 114.362C183.655 114.452 183.895 114.542 184.133 114.634C184.476 114.765 184.822 114.898 185.166 115.034C185.482 115.157 185.797 115.283 186.113 115.414C186.172 115.437 186.232 115.46 186.29 115.485C186.565 115.596 186.84 115.711 187.112 115.826C187.289 115.898 187.463 115.973 187.637 116.047C188.398 116.37 189.157 116.704 189.916 117.05H189.918C190.394 117.267 190.877 117.475 191.363 117.673C191.476 117.719 191.59 117.765 191.706 117.808C191.899 117.888 192.094 117.962 192.29 118.039C192.416 118.088 192.543 118.137 192.673 118.183C192.86 118.255 193.05 118.324 193.24 118.39C193.441 118.462 193.639 118.534 193.842 118.601C193.914 118.626 193.985 118.649 194.059 118.675C194.294 118.752 194.529 118.829 194.766 118.903C194.79 118.911 194.814 118.919 194.84 118.926C195.089 119.003 195.337 119.08 195.588 119.152C195.607 119.159 195.628 119.165 195.648 119.17C195.918 119.249 196.192 119.326 196.464 119.401C196.866 119.508 197.27 119.611 197.674 119.706C197.748 119.724 197.822 119.742 197.895 119.757C198.112 119.808 198.326 119.857 198.542 119.903C198.772 119.955 199.004 120.001 199.234 120.047C199.467 120.093 199.699 120.139 199.929 120.18C200.053 120.203 200.177 120.226 200.298 120.247L200.623 120.301C200.848 120.339 201.072 120.372 201.299 120.408C201.305 120.408 201.312 120.409 201.318 120.411C201.574 120.449 201.827 120.485 202.083 120.516C202.329 120.549 202.574 120.578 202.82 120.606C202.87 120.611 202.923 120.616 202.976 120.621C203.179 120.644 203.382 120.667 203.586 120.685C203.644 120.69 203.702 120.696 203.76 120.701C203.961 120.719 204.161 120.737 204.362 120.749C204.402 120.755 204.443 120.757 204.483 120.757C204.663 120.772 204.843 120.785 205.022 120.793C205.149 120.803 205.273 120.808 205.4 120.816C205.466 120.819 205.529 120.821 205.595 120.824C205.769 120.834 205.944 120.839 206.121 120.844C206.334 120.852 206.548 120.857 206.76 120.862C207.016 120.867 207.275 120.87 207.531 120.87H207.536C207.787 120.87 208.04 120.867 208.291 120.862H208.386L208.663 120.855C208.806 120.852 208.949 120.847 209.089 120.842C209.358 120.831 209.625 120.819 209.891 120.803C209.997 120.798 210.105 120.79 210.211 120.785C210.258 120.783 210.308 120.778 210.356 120.775C210.522 120.765 210.686 120.755 210.852 120.742C211.024 120.729 211.198 120.713 211.37 120.696C211.592 120.675 211.814 120.652 212.035 120.629C212.21 120.611 212.384 120.59 212.556 120.57C212.579 120.568 212.602 120.564 212.624 120.56C212.791 120.542 212.957 120.521 213.121 120.498C213.316 120.472 213.509 120.444 213.702 120.416C213.723 120.414 213.741 120.411 213.762 120.408C214.095 120.357 214.43 120.306 214.766 120.247C215.117 120.185 215.468 120.119 215.817 120.049C215.946 120.024 216.073 119.996 216.202 119.97C216.273 119.955 216.347 119.942 216.416 119.926C216.524 119.903 216.63 119.88 216.735 119.855C216.754 119.852 216.775 119.847 216.794 119.844C216.941 119.814 217.087 119.778 217.235 119.742C217.53 119.673 217.821 119.601 218.111 119.524C218.241 119.493 218.37 119.46 218.494 119.426C218.531 119.416 218.568 119.406 218.602 119.396C219.138 119.249 219.67 119.095 220.197 118.932C220.43 118.86 220.659 118.785 220.889 118.706C221.383 118.542 221.872 118.369 222.357 118.188C222.487 118.142 222.616 118.091 222.745 118.042C222.935 117.967 223.126 117.893 223.313 117.819C223.482 117.75 223.651 117.68 223.823 117.608C223.907 117.575 223.992 117.539 224.076 117.503C224.33 117.396 224.583 117.285 224.834 117.175C225.003 117.098 225.169 117.024 225.336 116.947C225.6 116.824 225.861 116.698 226.122 116.573C226.188 116.539 226.252 116.506 226.315 116.475C226.482 116.393 226.648 116.309 226.817 116.226C227.084 116.088 227.35 115.95 227.614 115.806C227.704 115.76 227.791 115.711 227.881 115.662C228.172 115.503 228.459 115.342 228.745 115.178C229.376 114.811 229.998 114.428 230.611 114.029C230.764 113.932 230.918 113.829 231.068 113.729C231.353 113.539 231.633 113.345 231.913 113.15C231.942 113.129 231.969 113.109 231.998 113.091C232.138 112.991 232.277 112.891 232.417 112.788C232.708 112.575 232.996 112.36 233.284 112.139C233.289 112.137 233.297 112.129 233.305 112.124C233.434 112.024 233.563 111.924 233.69 111.824C234.084 111.514 234.472 111.198 234.852 110.873C235.039 110.716 235.224 110.555 235.407 110.393C235.544 110.273 235.681 110.152 235.816 110.029C236.088 109.781 236.354 109.534 236.618 109.283C236.751 109.16 236.88 109.032 237.012 108.904C237.141 108.775 237.273 108.647 237.403 108.517C237.448 108.473 237.492 108.427 237.537 108.381C237.669 108.245 237.801 108.106 237.933 107.97C238.047 107.852 238.158 107.729 238.271 107.606C238.462 107.401 238.654 107.196 238.842 106.988C238.852 106.977 238.862 106.966 238.873 106.955C238.884 106.942 238.895 106.932 238.903 106.922H238.9C242.738 102.612 245.59 97.56 247.266 92.0999C248.943 86.6398 249.406 80.8962 248.626 75.2492C247.845 69.6021 245.839 64.1805 242.739 59.343C239.638 54.5055 235.516 50.3624 230.643 47.188L230.643 47.188Z" fill="#6C63FF"/>
<g opacity="0.15">
<path d="M177.197 16.9307C177.723 18.7666 178.515 20.5208 179.549 22.1407C177.818 20.6971 176.272 19.0573 174.943 17.2565C175.69 17.1194 176.441 17.0108 177.197 16.9307Z" fill="black"/>
<path d="M151.432 45.3238C149.477 46.3595 147.65 47.6067 145.985 49.0416C148.797 45.813 150.852 42.0292 152.007 37.9524C152.021 37.9035 152.035 37.8542 152.049 37.8051L152.088 37.6664C153.477 32.8008 156.172 28.3807 159.897 24.8582L160.19 24.5811L160.397 24.9236C161.539 26.8091 162.905 28.5575 164.468 30.1328C162.073 36.6951 157.413 42.1567 151.432 45.3238Z" fill="black"/>
<path d="M165.196 27.859L165.157 27.9977C165.143 28.0468 165.129 28.0961 165.115 28.1451C165.038 28.4149 164.956 28.6827 164.871 28.9493C164.036 26.8484 163.45 24.6621 163.123 22.4326L163.092 22.2434L163.252 22.1322C165.262 20.7302 167.444 19.5783 169.748 18.7032C167.679 21.4663 166.138 24.5673 165.196 27.859Z" fill="black"/>
<path d="M138.324 55.1311C140.053 54.2119 141.672 53.1085 143.15 51.8413C140.198 55.1793 138.081 59.1359 136.967 63.4009C135.852 67.666 135.77 72.1237 136.727 76.4248C137.683 80.7258 139.652 84.7534 142.48 88.1919C145.307 91.6305 148.916 94.3865 153.024 96.244L153.158 96.3039L153.291 96.2455C155.51 95.2721 157.849 94.5823 160.251 94.1933C158.752 94.9347 157.355 95.8558 156.092 96.9351L155.665 97.2937L156.201 97.4655C156.663 97.6141 157.126 97.7507 157.576 97.872C160.218 98.5867 162.95 98.9416 165.693 98.9266C178.157 98.8491 190.717 101.647 203.025 107.243C205.136 108.201 207.325 108.987 209.571 109.592C219.355 112.237 229.8 111.285 238.907 106.919C233.773 112.685 227.059 116.919 219.546 119.128C212.033 121.337 204.029 121.431 196.463 119.399C194.218 118.794 192.028 118.008 189.918 117.05C177.61 111.454 165.049 108.656 152.586 108.734C149.842 108.749 147.11 108.394 144.468 107.679C144.018 107.558 143.555 107.421 143.093 107.273L142.557 107.101L142.984 106.742C144.247 105.663 145.644 104.742 147.143 104.001C144.742 104.39 142.402 105.079 140.183 106.053L140.05 106.111L139.917 106.051C134.983 103.822 130.785 100.305 127.791 95.8934C124.796 91.4819 123.123 86.3491 122.958 81.0679C122.793 75.7867 124.142 70.5648 126.855 65.9849C129.569 61.405 133.539 57.6473 138.324 55.1311L138.324 55.1311Z" fill="black"/>
</g>
</g>
<defs>
<clipPath id="clip0_20_56">
<rect width="249" height="204" fill="white"/>
</clipPath>
</defs>
</svg>
